PathFileType	4	(X/Y/Z)	E:\Qualisys_Data\Carbon_Farble_Plate\Data\Amateur_Runner\S14\T1\S14T1V24_c3d.trc
DataRate	CameraRate	NumFrames	NumMarkers	Units	OrigDataRate	OrigDataStartFrame	OrigNumFrames
200.000000	200.000000	4	39	mm	200.000000	274	314
Frame#	Time	LSHO			RSHO			LICST			RICST			LASIS			LHEEL			RASIS			LTROC			RTROC			SACR			LTH1			LSK4			LTH2			LTH3			RHM5			LSK2			LTH4			RTH1			LTOE			RTH2			RTH3			RTH4			LLEP			RLEP			LSK1			LSK3			RSK1			LHM5			RSK2			LFT1			RSK3			RSK4			LLME			RLME			RTOE			RHEEL			RFT1			RFT2			LFT2			
		X1	Y1	Z1	X2	Y2	Z2	X3	Y3	Z3	X4	Y4	Z4	X5	Y5	Z5	X6	Y6	Z6	X7	Y7	Z7	X8	Y8	Z8	X9	Y9	Z9	X10	Y10	Z10	X11	Y11	Z11	X12	Y12	Z12	X13	Y13	Z13	X14	Y14	Z14	X15	Y15	Z15	X16	Y16	Z16	X17	Y17	Z17	X18	Y18	Z18	X19	Y19	Z19	X20	Y20	Z20	X21	Y21	Z21	X22	Y22	Z22	X23	Y23	Z23	X24	Y24	Z24	X25	Y25	Z25	X26	Y26	Z26	X27	Y27	Z27	X28	Y28	Z28	X29	Y29	Z29	X30	Y30	Z30	X31	Y31	Z31	X32	Y32	Z32	X33	Y33	Z33	X34	Y34	Z34	X35	Y35	Z35	X36	Y36	Z36	X37	Y37	Z37	X38	Y38	Z38	X39	Y39	Z39	

275	1.37	2697.845703125	1436.901123046875	-570.4972534179688	2677.718505859375	1439.77197265625	-275.096923828125	2695.463134765625	984.1558837890624	-547.3968505859375	2711.482421875	986.7901611328124	-275.7005615234375	2735.942626953125	934.159912109375	-523.179931640625	2249.355712890625	196.6113128662109	-433.39453125	2747.845947265625	948.1341552734376	-292.97216796875	2578.283447265625	869.439453125	-560.0120849609375	2619.67529296875	885.6207275390625	-233.1361999511719	2568.592529296875	985.2965698242188	-410.5030212402344	2619.170166015625	640.1533203125	-565.298095703125	2388.61328125	351.4548950195312	-514.4811401367188	2545.591064453125	654.5694580078125	-539.8771362304688	2610.379638671875	542.6653442382812	-542.3516845703125	2735.051513671875	135.3104400634766	-232.5211639404297	2452.3408203125	426.4074096679688	-534.4877319335938	2533.913330078125	558.221923828125	-523.3212890625	2865.9111328125	737.3145751953125	-248.5596618652344	2435.841796875	41.89443206787109	-466.2747497558594	2802.072998046875	695.4234619140625	-233.1583099365234	2921.8818359375	657.3636474609375	-273.1137390136719	2853.975341796875	610.2078857421875	-249.7920379638672	2562.587646484375	481.2586975097656	-533.1229248046875	2903.53955078125	565.2960815429688	-258.5830993652344	2515.5224609375	373.745361328125	-532.8951416015625	2449.322509765625	297.3198852539062	-518.1575317382812	2872.1484375	453.7596740722656	-253.1533813476562	2366.70068359375	51.41749954223633	-522.4270629882812	2801.29931640625	501.0347290039062	-252.9368286132812	2248.3369140625	171.8935852050781	-403.9502258300781	2808.863037109375	371.1618347167969	-261.4768371582031	2746.5830078125	421.1528625488281	-258.0758056640625	2307.335693359375	183.8297271728516	-493.3034362792969	2669.408203125	264.2937927246094	-266.4588012695312	2795.238525390625	92.37866973876952	-292.5916137695312	2609.3603515625	272.6509704589844	-321.3932189941406	2602.139404296875	239.086669921875	-348.2652587890625	2594.486328125	256.1715087890625	-292.837890625	2231.618896484375	171.9869995117188	-456.8181457519531
276	1.375	2719.689208984375	1441.779418945312	-570.6400756835938	2694.864501953125	1443.943115234375	-274.9024353027344	2717.85009765625	989.0807495117188	-547.1779174804688	2732.8837890625	993.8815307617188	-275.7647094726562	2757.57373046875	938.1966552734376	-522.6752319335938	2261.768310546875	206.6452331542969	-435.8587646484375	2768.45849609375	953.2035522460938	-292.5481262207031	2597.5849609375	874.8641967773438	-559.8543090820312	2640.928955078125	890.5453491210938	-232.8397674560547	2589.6787109375	989.488037109375	-411.1480102539062	2635.0966796875	645.5993041992188	-565.5767822265625	2400.235107421875	358.96240234375	-515.7213134765625	2561.021728515625	661.3650512695312	-539.7236938476562	2623.52783203125	548.1064453125	-543.4193725585938	2780.5712890625	130.3750610351562	-235.2206726074219	2463.447265625	434.2319641113281	-535.4862670898438	2547.69140625	564.9066772460938	-523.45166015625	2887.33984375	742.4707641601562	-249.3291625976562	2438.438232421875	40.18147659301758	-465.8825988769531	2823.6328125	700.7455444335938	-234.8108062744141	2943.4287109375	661.6389770507812	-273.943115234375	2876.22705078125	615.1405029296875	-251.0498199462891	2574.718994140625	487.1258544921875	-534.4842529296875	2925.116455078125	569.7609252929688	-259.287841796875	2526.2578125	380.9497375488281	-534.323974609375	2460.081787109375	304.4465942382812	-520.34716796875	2898.5556640625	454.917724609375	-253.8842620849609	2371.0859375	53.64119720458984	-523.5730590820312	2824.87939453125	498.49755859375	-252.5901184082031	2259.022705078125	182.6333618164062	-406.4183044433594	2839.82275390625	369.29443359375	-261.9924621582031	2775.004150390625	416.2253723144531	-258.1438293457031	2318.467529296875	190.78271484375	-495.700927734375	2707.514892578125	254.0123596191406	-268.0484619140625	2841.259033203125	90.05000305175781	-294.694580078125	2645.612060546875	259.6264953613281	-321.670166015625	2639.617919921875	225.7022247314453	-348.5809936523438	2630.91015625	242.9507904052734	-292.2314758300781	2242.905029296875	182.7242736816406	-459.0023498535156
277	1.38	2739.708251953125	1446.406372070312	-569.2102661132812	2712.1953125	1448.352783203125	-274.7705078125	2739.85986328125	992.7188720703124	-546.9720458984375	2748.585693359375	996.0576171875	-273.444580078125	2779.197509765625	941.9893188476562	-522.3944091796875	2276.089599609375	217.3811340332031	-439.3391418457031	2789.566162109375	958.18603515625	-292.2692565917969	2617.920166015625	880.725830078125	-560.2620239257812	2661.77783203125	895.6818237304688	-232.7146606445312	2610.992919921875	993.1325073242188	-411.1408996582031	2649.968017578125	650.5753784179688	-566.6714477539062	2410.982177734375	366.3612670898438	-516.494873046875	2577.03564453125	668.5829467773438	-539.4295654296875	2637.49609375	553.8442993164062	-544.153076171875	2826.045654296875	126.3115844726562	-237.8965759277344	2474.98193359375	441.0514831542969	-535.9380493164062	2561.731201171875	571.7511596679688	-523.57470703125	2908.25244140625	746.420654296875	-249.6130828857422	2441.460205078125	37.95827102661133	-466.1471862792969	2843.9541015625	704.0126953125	-234.4062652587891	2964.182861328125	665.5228881835938	-274.1651000976562	2897.82275390625	619.090576171875	-252.3988189697266	2587.285400390625	493.1633605957031	-535.5792236328125	2946.430908203125	573.1056518554688	-260.3817443847656	2537.885498046875	388.2251892089844	-535.7911987304688	2471.69091796875	311.6414794921875	-522.2713012695312	2924.24609375	456.0455322265625	-253.5838928222656	2375.987548828125	56.62948989868164	-524.1934814453125	2847.854248046875	495.4447937011719	-251.8604736328125	2270.820556640625	193.6946563720703	-408.8879699707031	2869.63720703125	367.5809020996094	-261.7854919433594	2802.833251953125	410.7794494628906	-257.6846313476562	2329.095458984375	197.6953430175781	-498.79736328125	2744.35498046875	244.5531158447266	-269.2941589355469	2888.322998046875	89.9090347290039	-297.3026428222656	2681.827392578125	247.1938018798828	-321.6221008300781	2677.878662109375	212.8473052978516	-349.3414001464844	2668.41552734375	229.2607116699219	-293.7161560058594	2254.757568359375	194.6492614746094	-461.776611328125
278	1.385	2759.304443359375	1450.807495117188	-567.8716430664062	2729.8408203125	1452.02001953125	-274.2456970214844	2761.241455078125	996.5086059570312	-546.4312133789062	2766.4912109375	999.1197509765624	-272.2498779296875	2800.344970703125	945.7066650390624	-521.9923095703125	2290.5556640625	227.89306640625	-441.8640747070312	2810.409423828125	963.0287475585938	-292.297607421875	2638.048095703125	886.0033569335938	-560.0408935546875	2682.89306640625	900.4938354492188	-232.3810424804688	2632.023681640625	997.032470703125	-412.052734375	2665.45947265625	655.7857666015625	-567.2881469726562	2423.78369140625	373.2207641601562	-517.40771484375	2593.548828125	674.5865478515625	-539.1923217773438	2651.411376953125	558.7861938476562	-545.9039306640625	2871.545654296875	123.5129852294922	-240.2545623779297	2487.402099609375	448.5813598632812	-536.241943359375	2576.34228515625	577.9268188476562	-524.1441040039062	2928.700927734375	749.9757690429688	-249.4160003662109	2444.813720703125	36.41119384765625	-466.4269714355469	2865.385986328125	707.9969482421875	-235.4190521240234	2984.64208984375	668.9966430664062	-274.0625305175781	2917.030029296875	623.2189331054688	-252.650634765625	2600.21044921875	500.2205810546875	-536.80615234375	2967.91552734375	575.0828857421875	-261.7223510742188	2550.132080078125	395.3656616210938	-537.4220581054688	2484.000732421875	319.0646057128906	-524.2265625	2949.23046875	457.0669860839844	-253.3896484375	2381.545654296875	60.42993927001953	-524.956298828125	2871.38232421875	492.3586120605469	-251.1544799804688	2283.541748046875	204.9893951416016	-411.01904296875	2899.6298828125	365.8901977539062	-261.7799072265625	2830.06787109375	405.0926208496094	-257.7572326660156	2341.041259765625	205.1139221191406	-500.6631469726562	2781.89013671875	235.4083557128906	-269.9161682128906	2935.34521484375	91.22843170166016	-299.9976196289062	2718.921630859375	234.4515686035156	-323.0031127929688	2717.552734375	200.0676422119141	-350.4867553710938	2705.891357421875	215.7975921630859	-294.4306945800781	2268.181884765625	206.2981109619141	-464.3576965332031
